<svg width="43" height="40" viewBox="0 0 43 40" fill="none" xmlns="http://www.w3.org/2000/svg">
<g clip-path="url(#clip0_1425_8287)">
<path d="M21.5814 33.6814C14.5678 33.79 7.55419 33.8987 0.53949 34.0073C0.848089 33.5249 0.547043 34.0073 0.53949 34.0073C2.59071 30.8565 4.42504 27.8143 6.69098 24.4462C7.77 22.8164 8.63321 21.078 9.80287 19.52C10.651 20.8586 9.79963 19.5244 9.80287 19.52C10.651 20.8586 11.5002 22.1971 12.3483 23.5357L12.7033 24.0963" stroke="#572516" stroke-linecap="round" stroke-linejoin="round"/>
<path d="M10.5291 27.5589C13.4888 22.7077 16.5101 18.0358 19.4946 13.2867C19.9122 13.9593 19.4914 13.2911 19.4946 13.2867C20.7182 15.5369 22.3368 17.7099 23.6672 20.0034" stroke="#572516" stroke-linecap="round" stroke-linejoin="round"/>
<path d="M9.03568 29.7515L6.42877 33.9106" stroke="#572516" stroke-miterlimit="10" stroke-linecap="round"/>
<path d="M19.4946 13.2868V1.81884C23.6359 4.21673 25.9839 -1.02777 31.0218 1.03548V7.20458C26.3259 6.10831 23.4654 10.8367 19.4946 8.59311" stroke="#572516" stroke-linejoin="round"/>
<path d="M31.3466 39.3311C37.4548 39.3311 42.4065 34.3451 42.4065 28.1945C42.4065 22.044 37.4548 17.058 31.3466 17.058C25.2383 17.058 20.2866 22.044 20.2866 28.1945C20.2866 34.3451 25.2383 39.3311 31.3466 39.3311Z" stroke="#572516" stroke-miterlimit="10"/>
<path d="M23.7384 28.1945H39.0616" stroke="#572516" stroke-miterlimit="10" stroke-linecap="round"/>
<path d="M31.4081 20.9694V35.4838" stroke="#572516" stroke-miterlimit="10" stroke-linecap="round"/>
</g>
<defs>
<clipPath id="clip0_1425_8287">
<rect width="43" height="39.9286" fill="white"/>
</clipPath>
</defs>
</svg>
