<svg width="30" height="28" viewBox="0 0 30 28" fill="none" xmlns="http://www.w3.org/2000/svg">
<g clip-path="url(#clip0_2138_7073)">
<path d="M24.2194 14.7017C26.0136 14.7017 27.468 13.2592 27.468 11.4798C27.468 9.70044 26.0136 8.25797 24.2194 8.25797C22.4253 8.25797 20.9708 9.70044 20.9708 11.4798C20.9708 13.2592 22.4253 14.7017 24.2194 14.7017Z" stroke="white" stroke-width="0.9" stroke-linecap="round" stroke-linejoin="round"/>
<path d="M21.905 9.22021C22.8933 11.2858 24.7341 12.2366 27.4081 12.0991" stroke="white" stroke-width="0.9" stroke-linecap="round" stroke-linejoin="round"/>
<path d="M1.04602 24.0808V19.5537C1.04602 17.9378 2.36712 16.6276 3.99648 16.6276H8.14532C9.8743 16.6276 11.2763 18.018 11.2763 19.7327V20.3542" stroke="white" stroke-width="0.9" stroke-linecap="round" stroke-linejoin="round"/>
<path d="M29.3241 23.7944V19.2674C29.3241 17.6514 28.003 16.3412 26.3737 16.3412H22.2248C20.4958 16.3412 19.0939 17.7316 19.0939 19.4464V20.7874" stroke="white" stroke-width="0.9" stroke-linecap="round" stroke-linejoin="round"/>
<path d="M9.85046 27.642V22.9789C9.85046 21.5291 11.0351 20.3542 12.497 20.3542H17.5425C19.2426 20.3542 20.6214 21.721 20.6214 23.4078V27.642" stroke="white" stroke-width="0.9" stroke-linecap="round" stroke-linejoin="round"/>
<path d="M15.1233 1.95745C12.0509 -1.59374 7.97639 1.88586 10.3587 4.74972L14.9934 9.34622L19.527 4.89291C22.7034 1.38468 17.2487 -1.59374 15.1233 1.95745V1.95745Z" stroke="white" stroke-width="0.9" stroke-linecap="round" stroke-linejoin="round"/>
<path d="M5.95503 14.7017C7.74919 14.7017 9.20365 13.2592 9.20365 11.4798C9.20365 9.70044 7.74919 8.25797 5.95503 8.25797C4.16087 8.25797 2.70642 9.70044 2.70642 11.4798C2.70642 13.2592 4.16087 14.7017 5.95503 14.7017Z" stroke="white" stroke-width="0.9" stroke-linecap="round" stroke-linejoin="round"/>
<path d="M8.26951 9.22021C7.28121 11.2858 5.44033 12.2366 2.76636 12.0991" stroke="white" stroke-width="0.9" stroke-linecap="round" stroke-linejoin="round"/>
<path d="M15.0512 18.0667C16.8453 18.0667 18.2998 16.6242 18.2998 14.8448C18.2998 13.0655 16.8453 11.623 15.0512 11.623C13.257 11.623 11.8026 13.0655 11.8026 14.8448C11.8026 16.6242 13.257 18.0667 15.0512 18.0667Z" stroke="white" stroke-width="0.9" stroke-linecap="round" stroke-linejoin="round"/>
<path d="M12.7367 12.5852C13.725 14.6508 15.5659 15.6016 18.2398 15.4641" stroke="white" stroke-width="0.9" stroke-linecap="round" stroke-linejoin="round"/>
</g>
<defs>
<clipPath id="clip0_2138_7073">
<rect width="29" height="28" fill="white" transform="translate(0.685059)"/>
</clipPath>
</defs>
</svg>
