<svg width="41" height="41" viewBox="0 0 41 41" fill="none" xmlns="http://www.w3.org/2000/svg">
<path d="M8.86166 18.1349H26.3199M14.3163 18.1349L17.5908 29.3592M20.8653 18.1349L17.5908 29.3592M23.0454 13.6469L26.3199 18.1349L17.5908 29.3592L8.86166 18.1349L12.1447 13.6469H23.0454Z" stroke="#572516" stroke-width="0.75" stroke-linecap="round" stroke-linejoin="round"/>
<path d="M12.1447 13.6426L14.3163 18.1306L17.5908 13.6426L20.8653 18.1306L23.0454 13.6426" stroke="#572516" stroke-width="0.75" stroke-linecap="round" stroke-linejoin="round"/>
<path d="M23.3392 8.3796H32.128M26.0857 8.3796L27.7336 14.0301M29.3815 8.3796L27.7336 14.0301M30.4801 6.1228L32.128 8.38385L27.7336 14.0344L23.3392 8.38385L24.9914 6.1228H30.4801V6.1228Z" stroke="#572516" stroke-width="0.5" stroke-linecap="round" stroke-linejoin="round"/>
<path d="M24.9914 6.11853L26.0857 8.37958L27.7336 6.11853L29.3815 8.37958L30.4801 6.11853" stroke="#572516" stroke-width="0.5" stroke-linecap="round" stroke-linejoin="round"/>
<path d="M6.42178 29.8319V6.82538C6.42178 3.61477 8.87019 1.00881 11.8892 1.00881H36.2668C39.899 0.795906 41.2658 4.47491 40.0182 8.3881H33.878" stroke="#572516" stroke-linecap="round" stroke-linejoin="round"/>
<path d="M36.2711 1.00989C34.3677 1.22279 33.9419 2.50022 33.878 4.03314V35.4878C31.4892 42.8756 21.9255 40.4314 23.105 32.4901L1.46536 32.3495C0.213473 36.4842 1.49516 39.0092 5.21674 39.9715H28.202" stroke="#572516" stroke-linecap="round" stroke-linejoin="round"/>
</svg>
